<svg width="32" height="32" viewBox="0 0 32 32" fill="none" xmlns="http://www.w3.org/2000/svg">
<path d="M9.33203 26.666H22.6654" stroke="#AD8181" stroke-width="2.5" stroke-linecap="round" stroke-linejoin="round"/>
<path d="M13.332 26.6673C20.6654 23.334 14.3987 18.134 17.332 13.334" stroke="#AD8181" stroke-width="2.5" stroke-linecap="round" stroke-linejoin="round"/>
<path d="M12.6654 12.5328C14.132 13.5995 15.0654 15.4661 15.732 17.4661C13.0654 17.9995 11.0654 17.9995 9.33203 17.0661C7.73203 16.2661 6.26536 14.5328 5.33203 11.4661C9.06536 10.7995 11.1987 11.4661 12.6654 12.5328Z" stroke="#AD8181" stroke-width="2.5" stroke-linecap="round" stroke-linejoin="round"/>
<path d="M18.7997 8.00065C17.7832 9.58939 17.2718 11.4488 17.333 13.334C19.8664 13.2007 21.733 12.534 23.0664 11.4673C24.3997 10.134 25.1997 8.40065 25.333 5.33398C21.733 5.46732 19.9997 6.66732 18.7997 8.00065Z" stroke="#AD8181" stroke-width="2.5" stroke-linecap="round" stroke-linejoin="round"/>
</svg>
