<svg width="40" height="40" viewBox="0 0 40 40" fill="none" xmlns="http://www.w3.org/2000/svg">
<path d="M31.6654 23.3333C34.1487 20.9 36.6654 17.9833 36.6654 14.1667C36.6654 11.7355 35.6996 9.40394 33.9805 7.68485C32.2614 5.96577 29.9298 5 27.4987 5C24.5654 5 22.4987 5.83333 19.9987 8.33333C17.4987 5.83333 15.432 5 12.4987 5C10.0675 5 7.73597 5.96577 6.01689 7.68485C4.2978 9.40394 3.33203 11.7355 3.33203 14.1667C3.33203 18 5.83203 20.9167 8.33203 23.3333L19.9987 35L31.6654 23.3333Z" stroke="#AD8181" stroke-width="3" stroke-linecap="round" stroke-linejoin="round"/>
<path d="M19.9981 8.33301L15.0647 13.2663C14.7261 13.6025 14.4573 14.0024 14.2739 14.4429C14.0905 14.8834 13.9961 15.3558 13.9961 15.833C13.9961 16.3102 14.0905 16.7826 14.2739 17.2231C14.4573 17.6636 14.7261 18.0635 15.0647 18.3997C16.4314 19.7663 18.6147 19.8163 20.0647 18.5163L23.5147 15.3497C24.3795 14.565 25.5054 14.1303 26.6731 14.1303C27.8407 14.1303 28.9666 14.565 29.8314 15.3497L34.7647 19.783" stroke="#AD8181" stroke-width="3" stroke-linecap="round" stroke-linejoin="round"/>
<path d="M30.0013 25.0003L26.668 21.667" stroke="#AD8181" stroke-width="3" stroke-linecap="round" stroke-linejoin="round"/>
<path d="M25.0013 30.0003L21.668 26.667" stroke="#AD8181" stroke-width="3" stroke-linecap="round" stroke-linejoin="round"/>
</svg>
