<svg width="136" height="66" viewBox="0 0 136 66" fill="none" xmlns="http://www.w3.org/2000/svg">
<path d="M61.8016 7.27072C58.2142 7.2814 54.7357 9.19918 52.5994 10.8809C52.5243 10.9389 52.4614 11.0113 52.4145 11.0939C52.3675 11.1764 52.3373 11.2674 52.3257 11.3616C52.3141 11.4559 52.3213 11.5515 52.3468 11.6429C52.3724 11.7344 52.4158 11.8199 52.4745 11.8945C52.5333 11.9691 52.6062 12.0313 52.6892 12.0775C52.7721 12.1237 52.8634 12.1531 52.9577 12.1639C53.0521 12.1746 53.1476 12.1666 53.2388 12.1402C53.3301 12.1139 53.4152 12.0697 53.4892 12.0103C55.7839 10.204 59.9305 8.13781 63.4472 8.86815C64.8131 9.15179 68.022 10.3207 71.6672 11.2764C75.3125 12.2321 79.455 12.9985 83.0402 12.4322C83.1334 12.4173 83.2228 12.3842 83.3032 12.3348C83.3836 12.2854 83.4535 12.2207 83.5089 12.1442C83.5643 12.0678 83.6041 11.9812 83.626 11.8894C83.648 11.7976 83.6516 11.7024 83.6368 11.6092C83.6219 11.516 83.5888 11.4267 83.5394 11.3462C83.49 11.2658 83.4252 11.1959 83.3488 11.1405C83.2724 11.0851 83.1858 11.0453 83.094 11.0234C83.0022 11.0015 82.907 10.9978 82.8138 11.0127C79.6025 11.52 75.5962 10.8221 72.032 9.88769C68.4675 8.95323 65.406 7.80805 63.7394 7.4619C63.2106 7.35207 62.6784 7.29202 62.1486 7.27515C62.0328 7.27135 61.9173 7.2703 61.8016 7.27072ZM61.0567 13.5682C59.3557 13.5532 57.7144 13.9574 56.2599 15.0975C55.876 15.3984 55.0418 16.1519 54.2276 17.0025C53.8205 17.4277 53.4283 17.8687 53.1157 18.2878C52.8032 18.707 52.529 19.0394 52.4829 19.6041C52.4627 19.8531 52.5472 20.2502 52.8433 20.4698C53.1393 20.6891 53.4202 20.6654 53.6123 20.6389C53.9967 20.5862 54.2838 20.4435 54.5967 20.3116C54.9096 20.1797 55.2221 20.0505 55.425 19.9973C55.4911 19.9802 55.5096 19.9809 55.5393 19.9776C56.4264 20.791 57.4662 21.2717 58.5694 21.4981C58.6663 22.1568 58.7095 22.644 58.7233 22.9923C58.6218 22.9046 58.4994 22.8074 58.1497 22.8099C57.928 22.8116 57.6133 22.9751 57.4839 23.1703C57.3548 23.3655 57.339 23.5208 57.3302 23.6515C57.2864 24.2953 57.5192 24.7772 57.6862 25.1237C57.8531 25.4701 58.0083 25.7951 58.0926 26.5981C58.1856 27.4833 58.184 27.4251 58.1827 27.5057C58.1815 27.5862 58.1766 27.8173 58.2575 29.0086C58.264 29.1028 58.2889 29.1948 58.331 29.2794C58.3731 29.3639 58.4313 29.4394 58.5026 29.5014C58.5738 29.5634 58.6565 29.6108 58.746 29.6409C58.8355 29.6709 58.9301 29.683 59.0243 29.6765C59.1185 29.67 59.2105 29.645 59.2951 29.603C59.3796 29.5609 59.4551 29.5026 59.5171 29.4314C59.5791 29.3602 59.6265 29.2775 59.6566 29.188C59.6866 29.0984 59.6988 29.0039 59.6923 28.9097C59.6123 27.7311 59.616 27.6295 59.6175 27.5276C59.6191 27.4256 59.6139 27.3338 59.5209 26.4487C59.4411 25.6882 59.2678 25.1604 59.1078 24.7832C59.3238 24.7813 59.5657 24.7263 59.7473 24.5656C60.0374 24.309 60.1039 24.0096 60.145 23.7043C60.2086 23.2327 60.1804 22.6243 60.055 21.7113C62.9583 24.4097 64.8059 26.1112 66.561 27.242C68.361 28.4014 70.0671 28.9248 72.5003 29.2459C74.2622 29.4784 76.6073 29.5937 78.6922 29.1975C79.7347 28.9995 80.7182 28.6738 81.5311 28.1253C82.3439 27.5767 82.9817 26.7682 83.2031 25.7346C83.4471 24.5964 82.7552 23.5873 81.9199 22.8913C81.0846 22.1955 80.0148 21.7068 78.9339 21.9333C78.0821 22.1119 77.4836 22.7461 77.0727 23.4692C76.8674 23.8309 76.7154 24.2299 76.7169 24.68C76.7184 25.1301 76.9476 25.6536 77.3826 25.9456C77.4609 25.9983 77.5489 26.035 77.6414 26.0537C77.734 26.0724 77.8293 26.0726 77.9219 26.0545C78.0146 26.0363 78.1027 26.0001 78.1813 25.9478C78.26 25.8956 78.3276 25.8284 78.3802 25.7501C78.4329 25.6717 78.4696 25.5838 78.4883 25.4912C78.507 25.3987 78.5072 25.3034 78.4891 25.2107C78.4709 25.1181 78.4347 25.0299 78.3824 24.9513C78.3302 24.8727 78.263 24.8051 78.1847 24.7524C78.1305 24.7162 78.1541 24.7635 78.1539 24.6756C78.1536 24.5878 78.2024 24.3878 78.3208 24.179C78.5581 23.7616 79.0992 23.3667 79.2284 23.3396C79.6206 23.2574 80.4163 23.507 81.0016 23.9945C81.5869 24.482 81.8706 25.1001 81.7992 25.4338C81.6598 26.0844 81.3055 26.544 80.7269 26.9344C80.1484 27.3249 79.3411 27.6127 78.4242 27.7869C76.5902 28.1355 74.341 28.0403 72.6871 27.8221C70.3611 27.5152 68.9658 27.0817 67.339 26.0335C65.93 25.1258 64.3403 23.7195 61.9711 21.5291C62.731 21.4208 63.5004 21.2525 64.2717 21.0479C67.4674 20.2001 70.7383 18.7318 73.2717 18.1739C76.5008 18.7756 79.7583 18.7758 83.0142 17.9278C83.1838 17.8851 83.3319 17.782 83.4309 17.6378C83.5299 17.4937 83.5729 17.3184 83.5519 17.1448C83.5309 16.9712 83.4473 16.8112 83.3168 16.6949C83.1862 16.5785 83.0178 16.5137 82.8429 16.5127C82.7784 16.5121 82.7141 16.5203 82.6517 16.5369C79.43 17.3761 76.2116 17.3293 72.9574 16.6467C72.8793 16.6306 72.7991 16.6277 72.7201 16.6379C70.2114 16.0257 67.4414 14.8291 64.7088 14.1154C63.6067 13.8276 62.491 13.6216 61.3976 13.5771C61.2837 13.5725 61.1702 13.5693 61.0567 13.5682ZM61.1533 14.9963C61.2275 14.9981 61.3026 14.9994 61.3775 15.0029C62.3149 15.0481 63.3065 15.2346 64.346 15.5061C66.3122 16.0197 68.3872 16.8357 70.4566 17.4859C68.3232 18.1845 66.0595 19.0868 63.9022 19.659C63.3137 19.8151 62.7347 19.9457 62.1729 20.0413C62.9719 19.5549 63.5132 18.6965 63.5132 17.7101C63.5132 16.3449 62.4782 15.2226 61.1533 14.9963ZM59.8218 15.0776C58.6678 15.4247 57.8113 16.4665 57.8113 17.71C57.8113 18.7928 58.461 19.7218 59.3912 20.173C58.2413 20.0458 57.2594 19.6522 56.4182 18.8394C56.1932 18.6219 55.9 18.543 55.6712 18.5318C55.4425 18.5205 55.2484 18.5578 55.0626 18.6065C54.8943 18.6504 54.7333 18.707 54.577 18.7668C54.786 18.5177 55.016 18.26 55.2669 17.9978C56.0308 17.1998 56.9113 16.4144 57.1478 16.229C57.9704 15.5842 58.8634 15.2268 59.8218 15.0776Z" fill="#DA7C6F"/>
<path d="M19.1117 65H1.3272V64.071H2.45532C3.0968 64.071 3.51708 63.9493 3.71616 63.706C3.93736 63.4627 4.04796 63.0756 4.04796 62.5447V44.2293C4.04796 43.7869 3.90418 43.4219 3.61662 43.1344C3.35118 42.8468 2.96408 42.703 2.45532 42.703H1.3272V41.774H18.8462L19.1117 46.3528L18.1826 46.5519C18.1826 45.7556 17.8619 44.9925 17.2204 44.2625C16.5789 43.5325 15.6831 43.1676 14.5328 43.1676H8.49408C7.83048 43.1676 7.39914 43.3003 7.20006 43.5657C7.00098 43.809 6.90144 44.163 6.90144 44.6275V52.1925H13.5374C13.8692 52.1925 14.1236 52.1815 14.3006 52.1593C14.4775 52.1151 14.6324 51.9934 14.7651 51.7944C14.9199 51.5953 14.9974 51.3077 14.9974 50.9317V49.4054H15.9928V56.3068H14.9974V54.9133C14.9974 54.3603 14.8757 54.0064 14.6324 53.8515C14.3891 53.6746 14.0241 53.5861 13.5374 53.5861H6.90144V62.1465C6.90144 62.611 7.00098 62.976 7.20006 63.2415C7.39914 63.4848 7.83048 63.6064 8.49408 63.6064H14.7983C15.9706 63.6064 16.9992 63.2304 17.884 62.4783C18.7909 61.7262 19.2665 60.9963 19.3108 60.2884L20.2398 60.4212L19.1117 65ZM29.1204 65H22.4844V64.071H22.9489C23.4355 64.071 23.7895 63.9714 24.0107 63.7723C24.2319 63.5511 24.3425 63.1862 24.3425 62.6774V43.1012C24.3425 42.6809 24.1987 42.3823 23.9111 42.2053C23.6236 42.0063 23.1259 41.9067 22.418 41.9067V40.9777C22.8604 40.9777 23.5351 40.856 24.442 40.6127C25.371 40.3694 26.0457 40.115 26.466 39.8496L27.0632 39.7168V62.611C27.0632 62.965 27.0743 63.2193 27.0964 63.3742C27.1406 63.529 27.2734 63.6839 27.4946 63.8387C27.7158 63.9935 28.0586 64.071 28.5231 64.071H29.1204V65ZM34.9707 41.9067C35.4794 41.9067 35.8665 42.0726 36.132 42.4044C36.4195 42.7362 36.5633 43.1676 36.5633 43.6984C36.5633 44.2072 36.3532 44.6385 35.9329 44.9925C35.5126 45.3243 35.0481 45.4902 34.5393 45.4902C34.0527 45.4902 33.6656 45.3243 33.378 44.9925C33.1126 44.6607 32.9799 44.2514 32.9799 43.7648C32.9799 43.256 33.19 42.8247 33.6103 42.4708C34.0306 42.0947 34.484 41.9067 34.9707 41.9067ZM38.6205 65H31.9181V64.071H32.449C33.0462 64.071 33.4223 63.9714 33.5771 63.7723C33.7541 63.5733 33.8426 63.2525 33.8426 62.8101V52.8561C33.8426 52.4358 33.6988 52.1372 33.4112 51.9603C33.1458 51.7612 32.6481 51.6616 31.9181 51.6616V50.7326C32.3605 50.7326 33.0241 50.5778 33.9089 50.2681C34.8158 49.9363 35.5016 49.6266 35.9661 49.339L36.5633 49.2063V62.611C36.5633 62.965 36.5744 63.2193 36.5965 63.3742C36.6407 63.529 36.7735 63.6839 36.9947 63.8387C37.2159 63.9935 37.5587 64.071 38.0232 64.071H38.6205V65ZM41.2824 64.071L41.6142 60.4875L42.5432 60.5539C42.5432 61.306 43.0299 62.0249 44.0032 62.7106C44.9764 63.3963 46.0271 63.7392 47.1553 63.7392C49.4779 63.7392 50.6392 63.0313 50.6392 61.6156C50.6392 60.9078 50.3405 60.2774 49.7433 59.7244C49.1461 59.1714 48.4272 58.7179 47.5866 58.364C46.746 57.988 45.9055 57.6119 45.0649 57.2359C44.2244 56.8377 43.5055 56.329 42.9082 55.7096C42.311 55.0681 42.0124 54.3382 42.0124 53.5197C42.0124 50.6441 44.1359 49.2063 48.3829 49.2063C49.3341 49.2063 50.3737 49.4718 51.5018 50.0026L51.3028 53.3206H50.5064C50.5064 52.7013 50.1415 52.104 49.4115 51.5289C48.7037 50.9538 47.9295 50.6662 47.0889 50.6662C46.2483 50.6662 45.5294 50.8321 44.9322 51.1639C44.3571 51.4957 44.0695 51.9934 44.0695 52.657C44.0695 53.2985 44.3681 53.8294 44.9654 54.2497C45.5626 54.67 46.2815 55.0128 47.1221 55.2783C47.9626 55.5437 48.8032 55.8423 49.6438 56.1741C50.4843 56.5059 51.2032 57.0479 51.8005 57.7999C52.3977 58.552 52.6963 59.4921 52.6963 60.6202C52.6963 61.7484 52.3313 62.6885 51.6014 63.4405C50.2963 64.7899 48.405 65.4645 45.9276 65.4645C44.0032 65.4645 42.4548 65 41.2824 64.071ZM69.8732 65H65.0953V62.3456C63.9893 63.5401 63.0713 64.3585 62.3413 64.8009C61.6114 65.2433 60.616 65.4645 59.3551 65.4645C58.1164 65.4645 57.1431 65.177 56.4353 64.6018C55.7496 64.0046 55.4067 63.1751 55.4067 62.1133C55.4067 61.0516 55.8602 60.023 56.7671 59.0276C57.6961 58.0101 58.769 57.2469 59.9856 56.7382C61.2243 56.2073 62.3082 55.8091 63.2372 55.5437C64.1662 55.2561 64.7856 55.1124 65.0953 55.1124V54.3824C65.0953 52.3031 64.2326 51.2635 62.5072 51.2635C61.3128 51.2635 60.1957 51.5179 59.1561 52.0266C58.1385 52.5354 57.3754 53.1879 56.8666 53.9842L56.203 53.387C57.6851 50.5114 60.251 49.0736 63.9008 49.0736C64.8298 49.0736 65.593 49.328 66.1902 49.8367C66.8096 50.3234 67.2188 50.8985 67.4179 51.5621C67.6391 52.2257 67.7497 52.9667 67.7497 53.7852V62.7438C67.7497 63.0313 67.7718 63.2525 67.816 63.4074C67.8603 63.5622 67.993 63.717 68.2142 63.8719C68.4575 64.0046 68.8114 64.071 69.276 64.071H69.8732V65ZM65.0953 60.4875V56.4396C63.3699 56.7714 61.7662 57.435 60.2842 58.4304C58.8021 59.4258 58.0611 60.5096 58.0611 61.682C58.0611 62.1465 58.2823 62.5557 58.7247 62.9097C59.1892 63.2415 59.7533 63.4074 60.4169 63.4074C61.1026 63.4074 61.91 63.1087 62.839 62.5115C63.7681 61.8921 64.5202 61.2175 65.0953 60.4875ZM73.9134 63.4074V43.1012C73.9134 42.6809 73.7696 42.3823 73.482 42.2053C73.2166 42.0063 72.7189 41.9067 71.9889 41.9067V40.9777C72.4756 40.9777 73.1613 40.856 74.0461 40.6127C74.953 40.3694 75.6166 40.115 76.0369 39.8496L76.6341 39.7168V53.4534C77.0765 52.1704 77.8176 51.1197 78.8572 50.3013C79.8968 49.4828 81.1798 49.0736 82.7061 49.0736C84.2545 49.0736 85.4711 49.5824 86.3559 50.5999C87.2628 51.5953 87.7163 52.9446 87.7163 54.6478C87.7163 57.7668 86.8978 60.3548 85.2609 62.412C83.6241 64.447 81.6111 65.4645 79.2222 65.4645C78.3816 65.4645 77.4083 65.2101 76.3023 64.7014C75.2185 64.1926 74.4221 63.7613 73.9134 63.4074ZM76.6341 56.1078V62.0138C76.8332 62.412 77.1429 62.7769 77.5632 63.1087C78.3595 63.706 79.1116 64.0046 79.8194 64.0046C81.4121 64.0046 82.7503 63.2415 83.8342 61.7152C84.9181 60.1668 85.46 58.2313 85.46 55.9087C85.46 54.5815 85.0619 53.4865 84.2655 52.6239C83.4913 51.7612 82.4959 51.3298 81.2793 51.3298C80.0849 51.3298 79.012 52.0045 78.0609 53.3538C77.1097 54.681 76.6341 55.599 76.6341 56.1078ZM103.112 60.952L103.709 61.5493C102.293 64.1594 99.7493 65.4645 96.0774 65.4645C94.3741 65.4645 92.9142 64.7124 91.6976 63.2083C90.5031 61.7041 89.9059 60.023 89.9059 58.1649C89.9059 55.6654 90.7133 53.5308 92.328 51.7612C93.9649 49.9695 95.9446 49.0736 98.2672 49.0736C99.3732 49.0736 100.347 49.3943 101.187 50.0358C102.691 51.2082 103.443 52.7234 103.443 54.5815C103.443 54.8469 103.388 55.1677 103.277 55.5437C103.189 55.9197 103.112 56.1078 103.045 56.1078L92.3612 56.4396C92.3612 58.1649 92.9031 59.7576 93.987 61.2175C95.0709 62.6774 96.387 63.4074 97.9354 63.4074C99.0414 63.4074 100.059 63.1862 100.988 62.7438C101.939 62.2792 102.647 61.682 103.112 60.952ZM92.693 55.1124L100.457 54.7806C100.501 54.7806 100.523 54.5815 100.523 54.1833C100.523 53.0331 100.181 52.2146 99.4949 51.728C98.8313 51.2414 97.9023 50.998 96.7078 50.998C95.5354 50.998 94.5732 51.363 93.8211 52.093C93.069 52.8229 92.693 53.8294 92.693 55.1124ZM115.8 62.9428L116.066 63.7392C114.407 64.8894 112.593 65.4645 110.624 65.4645C109.916 65.4645 109.308 65.2101 108.799 64.7014C108.291 64.1926 108.036 63.518 108.036 62.6774V50.9317H106.112V49.5381H106.842C107.572 49.5381 108.246 49.0957 108.866 48.2109C109.507 47.3261 109.828 46.5077 109.828 45.7556H110.691V49.5381H115.203V50.9317H111.951C111.111 50.9317 110.691 51.3298 110.691 52.1262V61.6156C110.691 63.0756 111.221 63.8055 112.283 63.8055C113.478 63.8055 114.65 63.518 115.8 62.9428ZM134.311 65H128.538V64.071H128.737C128.958 64.071 129.146 63.9604 129.301 63.7392C129.456 63.4958 129.533 63.1862 129.533 62.8101V54.3824C129.533 52.3474 128.648 51.3298 126.879 51.3298C125.618 51.3298 124.501 51.9934 123.528 53.3206C122.576 54.6478 122.101 55.6432 122.101 56.3068V62.611C122.101 62.9428 122.123 63.1972 122.167 63.3742C122.278 63.8387 122.742 64.071 123.561 64.071H124.224V65H117.522V64.071H117.987C118.584 64.071 118.971 63.9714 119.148 63.7723C119.347 63.5511 119.446 63.2304 119.446 62.8101V43.1012C119.446 42.6809 119.303 42.3823 119.015 42.2053C118.728 42.0063 118.23 41.9067 117.522 41.9067V40.9777C117.987 40.9777 118.672 40.856 119.579 40.6127C120.486 40.3694 121.128 40.115 121.504 39.8496L122.101 39.7168V53.4534C123.251 50.5335 125.33 49.0736 128.339 49.0736C129.135 49.0736 129.81 49.2506 130.363 49.6045C130.938 49.9584 131.347 50.4119 131.59 50.9649C132.033 51.8939 132.254 52.834 132.254 53.7852V62.7438C132.254 63.0534 132.276 63.2857 132.32 63.4405C132.409 63.8608 132.851 64.071 133.647 64.071H134.311V65Z" fill="#AD8581"/>
</svg>
